<?xml version="1.0" standalone="no"?>
<!DOCTYPE svg PUBLIC "-//W3C//DTD SVG 20010904//EN"
 "http://www.w3.org/TR/2001/REC-SVG-20010904/DTD/svg10.dtd">
<svg version="1.0" xmlns="http://www.w3.org/2000/svg"
 width="512.000000pt" height="493.000000pt" viewBox="0 0 512.000000 493.000000"
 preserveAspectRatio="xMidYMid meet">

<g transform="translate(0.000000,493.000000) scale(0.100000,-0.100000)"
fill="#000000" stroke="none">
<path d="M0 2750 l0 -2180 95 0 95 0 0 190 0 190 190 0 190 0 0 -190 0 -190
95 0 95 0 0 190 0 190 798 0 799 0 27 -68 c65 -167 183 -337 333 -482 198
-192 421 -310 701 -372 140 -31 414 -31 559 0 502 108 894 450 1062 925 58
165 75 271 75 472 0 146 -4 198 -21 276 -52 234 -147 434 -289 610 l-64 80 0
1269 0 1270 -95 0 -95 0 0 -190 0 -190 -190 0 -190 0 0 190 0 190 -95 0 -95 0
0 -190 0 -190 -1610 0 -1610 0 0 190 0 190 -95 0 -95 0 0 -190 0 -190 -190 0
-190 0 0 190 0 190 -95 0 -95 0 0 -2180z m570 1420 l0 -190 -190 0 -190 0 0
190 0 190 190 0 190 0 0 -190z m3410 -570 l0 -760 -1610 0 -1610 0 0 760 0
760 1610 0 1610 0 0 -760z m570 570 l0 -190 -190 0 -190 0 0 190 0 190 190 0
190 0 0 -190z m-3980 -570 l0 -190 -190 0 -190 0 0 190 0 190 190 0 190 0 0
-190z m3980 0 l0 -190 -190 0 -190 0 0 190 0 190 190 0 190 0 0 -190z m-3980
-570 l0 -190 -190 0 -190 0 0 190 0 190 190 0 190 0 0 -190z m3980 0 l0 -190
-187 2 -188 3 -3 188 -2 187 190 0 190 0 0 -190z m-3980 -565 l0 -185 -190 0
-190 0 0 185 0 185 190 0 190 0 0 -185z m2400 181 c0 -2 -24 -19 -52 -37 -260
-166 -472 -444 -572 -749 -55 -168 -70 -282 -63 -483 4 -95 9 -187 13 -205 l6
-32 -771 0 -771 0 0 755 0 755 1105 0 c608 0 1105 -2 1105 -4z m1030 -29 c467
-126 806 -481 906 -949 24 -113 29 -305 11 -423 -42 -271 -157 -497 -351 -691
-194 -194 -420 -309 -691 -351 -118 -18 -310 -13 -423 11 -467 100 -823 440
-949 906 -35 129 -44 380 -18 515 72 387 316 714 663 889 188 95 341 127 582
122 149 -3 189 -7 270 -29z m550 -12 l0 -46 -62 42 c-35 23 -65 44 -67 46 -2
1 26 3 62 3 l67 0 0 -45z m-3980 -705 l0 -190 -190 0 -190 0 0 190 0 190 190
0 190 0 0 -190z m0 -570 l0 -190 -190 0 -190 0 0 190 0 190 190 0 190 0 0
-190z"/>
<path d="M3595 2010 l-100 -300 -324 -2 -324 -3 259 -194 c142 -107 260 -195
261 -196 2 -1 -42 -138 -96 -306 -54 -167 -97 -305 -95 -307 1 -2 115 78 253
178 138 99 257 183 263 185 7 3 128 -78 268 -180 140 -101 256 -183 257 -181
2 2 -39 136 -92 299 -52 162 -95 299 -95 304 0 4 115 94 255 198 140 105 254
193 255 197 0 4 -145 9 -322 10 l-321 3 -98 294 c-54 161 -100 295 -101 297
-2 2 -48 -132 -103 -296z"/>
</g>
</svg>
